# xmcd CD Database Entry
#
# Track frame offsets:
# 150
# 16862
# 31577
# 51490
# 67780
# 88050
# 107662
# 122342
# 139660
# 155995
# 177652
# 194910
#
# Disc length: 2806 seconds
#
# Revision: 1
# Processed by: cddbd v1.5.1PL0 Copyright (c) Steve Scherf et al.
# Submitted via: RSJCDWriter_freedb_lib_OS/2 1.02
#
DISCID=a40af40c
DTITLE=Mulberry Lane - Run Your Own Race
DYEAR=1900
DGENRE=
TTITLE0=harmless (metro mix)
TTITLE1=just one breath (metro mix)
TTITLE2=the why
TTITLE3=i believe it's love
TTITLE4=crisis line
TTITLE5=jeremiah
TTITLE6=i don't love you
TTITLE7=i don't know how to deal
TTITLE8=just another friday
TTITLE9=sisters care
TTITLE10=harmless
TTITLE11=just one breath
EXTD=
EXTT0=
EXTT1=
EXTT2=
EXTT3=
EXTT4=
EXTT5=
EXTT6=
EXTT7=
EXTT8=
EXTT9=
EXTT10=
EXTT11=
PLAYORDER=
